<svg width="40" height="40" viewBox="0 0 40 40" fill="none" xmlns="http://www.w3.org/2000/svg" role="img" aria-label="CarHaki icon">
  <title>CarHaki</title>
  <defs>
    <linearGradient id="shG40" x1="20" y1="4" x2="20" y2="37" gradientUnits="userSpaceOnUse">
      <stop offset="0%"   stop-color="#93C5FD"/>
      <stop offset="100%" stop-color="#1D4ED8"/>
    </linearGradient>
    <linearGradient id="bg40" x1="0" y1="0" x2="40" y2="40" gradientUnits="userSpaceOnUse">
      <stop offset="0%"   stop-color="#0C1F3F"/>
      <stop offset="100%" stop-color="#1E3A8A"/>
    </linearGradient>
  </defs>

  <rect width="40" height="40" rx="9" fill="url(#bg40)"/>
  <rect x="0.75" y="0.75" width="38.5" height="38.5" rx="8.25" fill="none" stroke="rgba(96,165,250,0.15)" stroke-width="0.75"/>

  <path d="M20 4.5L32 9V20C32 27.2 26.8 33.8 20 35.5C13.2 33.8 8 27.2 8 20V9L20 4.5Z"
        fill="url(#shG40)"/>
  <path d="M20 6.5L30.5 10.6V20C30.5 26.6 25.8 32.6 20 34.2C14.2 32.6 9.5 26.6 9.5 20V10.6L20 6.5Z"
        fill="none" stroke="rgba(255,255,255,0.18)" stroke-width="1"/>
  <path d="M13 19.5L17.5 24L27 13"
        stroke="white" stroke-width="2.8" stroke-linecap="round" stroke-linejoin="round"/>
</svg>
